<svg width="18" height="18" viewBox="0 0 18 18" fill="none" xmlns="http://www.w3.org/2000/svg">
<path d="M16.5516 1.41429V16.5429H1.45415V1.41429H16.5516ZM17.963 0H0V18H17.963V0Z" fill="#86828C"/>
<path d="M6.15869 4.24268H4.27686V6.12839H6.15869V4.24268Z" fill="#86828C"/>
<path d="M13.7288 11.8286H11.847V13.7143H13.7288V11.8286Z" fill="#86828C"/>
<path d="M6.15869 6.12866H4.27686V8.01438H6.15869V6.12866Z" fill="#86828C"/>
<path d="M13.7288 9.8999H11.847V11.7856H13.7288V9.8999Z" fill="#86828C"/>
<path d="M8.04053 6.12866H6.15869V8.01438H8.04053V6.12866Z" fill="#86828C"/>
<path d="M9.92249 8.01416H8.04065V9.89987H9.92249V8.01416Z" fill="#86828C"/>
<path d="M11.8043 9.8999H9.92242V11.7856H11.8043V9.8999Z" fill="#86828C"/>
<path d="M6.15869 8.01416H4.27686V9.89987H6.15869V8.01416Z" fill="#86828C"/>
<path d="M13.7288 8.01416H11.847V9.89987H13.7288V8.01416Z" fill="#86828C"/>
<path d="M6.15869 9.8999H4.27686V11.7856H6.15869V9.8999Z" fill="#86828C"/>
<path d="M13.7288 6.12866H11.847V8.01438H13.7288V6.12866Z" fill="#86828C"/>
<path d="M6.15869 11.8286H4.27686V13.7143H6.15869V11.8286Z" fill="#86828C"/>
<path d="M13.7288 4.24268H11.847V6.12839H13.7288V4.24268Z" fill="#86828C"/>
</svg>
